<?xml version='1.0' encoding='UTF-8' standalone='no'?>
<!-- Created with Fritzing (http://www.fritzing.org/) -->
<svg xmlns="http://www.w3.org/2000/svg" y="0in" width="2.01791in" baseProfile="tiny" height="0.9in" viewBox="0 0 145.29 64.8"  version="1.2" x="0in">
    <desc>
        <referenceFile>Adafruit_Feather_nRF52840_pcb.svg</referenceFile>
    </desc>
    <desc >Fritzing footprint generated by brd2svg</desc>
    <g gorn="0.1"  id="silkscreen">
        <path stroke-width="0.576" stroke="white"  fill="none" d="M8.74411,0.288L137.83,0.288A6.912,6.912,0,0,1,145.002,7.42399L145.002,57.376A6.912,6.912,0,0,1,137.83,64.512L8.74411,64.512A6.912,6.912,0,0,1,1.57265,57.376L1.57265,38.8224L3.00694,37.3952L3.00694,27.4048L1.57265,25.9776L1.57265,7.42399A6.912,6.912,0,0,1,8.74411,0.288M134.778,7.2a3.312,3.312,0,1,0,6.624,0,3.312,3.312,0,1,0,-6.624,0zM134.778,57.6a3.312,3.312,0,1,0,6.624,0,3.312,3.312,0,1,0,-6.624,0zM13.1856,26.8724a0.704126,0.704126,0,1,0,1.40826,0,0.704126,0.704126,0,1,0,-1.40826,0zM13.1856,37.9276a0.704126,0.704126,0,1,0,1.40826,0,0.704126,0.704126,0,1,0,-1.40826,0zM70.0724,27a1.12932,1.12932,0,1,0,2.25865,0,1.12932,1.12932,0,1,0,-2.25865,0zM70.0724,37.8a1.12932,1.12932,0,1,0,2.25865,0,1.12932,1.12932,0,1,0,-2.25865,0z"/>
        <g >
            <title >element:MDBT1</title>
            <g >
                <title >package:MDBT50</title>
                <line x2="143.858" stroke-width="0.36" stroke="white" stroke-linecap="round"  y1="17.5181" y2="47.2819" x1="143.858"/>
                <line x2="99.9216" stroke-width="0.36" stroke="white" stroke-linecap="round"  y1="47.2819" y2="47.2819" x1="143.858"/>
                <line x2="99.9216" stroke-width="0.36" stroke="white" stroke-linecap="round"  y1="47.2819" y2="17.5181" x1="99.9216"/>
                <line x2="143.858" stroke-width="0.36" stroke="white" stroke-linecap="round"  y1="17.5181" y2="17.5181" x1="99.9216"/>
            </g>
        </g>
        <g >
            <title >element:MS1</title>
            <g >
                <title >package:FEATHERWING_NODIM</title>
            </g>
        </g>
        <g >
            <title >element:U$12</title>
            <g >
                <title >package:NRF52840_BOT</title>
            </g>
        </g>
        <g >
            <title >element:U$14</title>
            <g >
                <title >package:NRF52840_TOP</title>
            </g>
        </g>
        <g >
            <title >element:X1</title>
            <g >
                <title >package:4UCONN_20329_V2</title>
                <line x2="17.0078" stroke-width="0.36" stroke="white" stroke-linecap="round"  y1="25.3134" y2="27.5811" x1="17.0078"/>
                <line x2="17.0078" stroke-width="0.36" stroke="white" stroke-linecap="round"  y1="37.2189" y2="39.4866" x1="17.0078"/>
                <line x2="1.70078" stroke-width="0.36" stroke="white" stroke-linecap="round"  y1="21.6284" y2="21.6284" x1="4.25197"/>
                <line x2="1.70078" stroke-width="0.36" stroke="white" stroke-linecap="round"  y1="21.6284" y2="43.1716" x1="1.70078"/>
                <line x2="4.25197" stroke-width="0.36" stroke="white" stroke-linecap="round"  y1="43.1716" y2="43.1716" x1="1.70078"/>
            </g>
        </g>
        <g >
            <title >element:X2</title>
            <g >
                <title >package:2X05_1.27MM_BOX_POSTS</title>
                <line x2="78.8551" stroke-width="0.36" stroke="white" stroke-linecap="round"  y1="23.3292" y2="13.9748" x1="78.8551"/>
                <line x2="63.5482" stroke-width="0.36" stroke="white" stroke-linecap="round"  y1="13.9748" y2="13.9748" x1="78.8551"/>
                <line x2="63.5482" stroke-width="0.36" stroke="white" stroke-linecap="round"  y1="13.9748" y2="23.3292" x1="63.5482"/>
                <line x2="78.8551" stroke-width="0.36" stroke="white" stroke-linecap="round"  y1="41.4708" y2="50.8252" x1="78.8551"/>
                <line x2="63.5482" stroke-width="0.36" stroke="white" stroke-linecap="round"  y1="50.8252" y2="50.8252" x1="78.8551"/>
                <line x2="63.5482" stroke-width="0.36" stroke="white" stroke-linecap="round"  y1="50.8252" y2="41.4708" x1="63.5482"/>
                <g >
                    <title >polygon</title>
                    <path stroke-width="0.36" stroke="white" stroke-linecap="round"  fill="none" d="M59.8632,13.9748L62.6978,15.3922L59.8632,16.8095L59.8632,13.9748M60.0417,14.0641L60.0417,16.7201L60.0417,14.0641M60.4017,14.2441L60.4017,16.5401L60.4017,14.2441M60.7617,14.4241L60.7617,16.3601L60.7617,14.4241M61.1217,14.6041L61.1217,16.1801L61.1217,14.6041M61.4817,14.7841L61.4817,16.0001L61.4817,14.7841M61.8417,14.9641L61.8417,15.8201L61.8417,14.9641M62.2017,15.1441L62.2017,15.6401L62.2017,15.1441"/>
                </g>
            </g>
        </g>
        <g >
            <title >element:X3</title>
            <g >
                <title >package:JSTPH2</title>
                <line x2="38.2677" stroke-width="0.576" stroke="white" stroke-linecap="round"  y1="1.57607" y2="1.57607" x1="25.5118"/>
                <line x2="43.2284" stroke-width="0.576" stroke="white" stroke-linecap="round"  y1="11.4973" y2="22.8359" x1="43.2284"/>
                <line x2="40.8189" stroke-width="0.576" stroke="white" stroke-linecap="round"  y1="22.8359" y2="22.8359" x1="43.2284"/>
                <line x2="40.8189" stroke-width="0.576" stroke="white" stroke-linecap="round"  y1="22.8359" y2="15.7493" x1="40.8189"/>
                <line x2="36.8504" stroke-width="0.576" stroke="white" stroke-linecap="round"  y1="15.7493" y2="15.7493" x1="40.8189"/>
                <line x2="22.9607" stroke-width="0.576" stroke="white" stroke-linecap="round"  y1="15.7493" y2="15.7493" x1="26.9292"/>
                <line x2="22.9607" stroke-width="0.576" stroke="white" stroke-linecap="round"  y1="15.7493" y2="22.8359" x1="22.9607"/>
                <line x2="20.5512" stroke-width="0.576" stroke="white" stroke-linecap="round"  y1="22.8359" y2="22.8359" x1="22.9607"/>
                <line x2="20.5512" stroke-width="0.576" stroke="white" stroke-linecap="round"  y1="22.8359" y2="11.4973" x1="20.5512"/>
            </g>
        </g>
        <line x2="1.28976" stroke-width="0.576" stroke="white" fill-opacity="1"  fill="none" y1="46.715" y2="46.715" x1="0.288"/>
        <line x2="1.28976" stroke-width="0.576" stroke="white" fill-opacity="1"  fill="none" y1="18.085" y2="18.085" x1="0.288"/>
        <line x2="0.288" stroke-width="0.576" stroke="white" fill-opacity="1"  fill="none" y1="46.715" y2="18.085" x1="0.288"/>
    </g>
    <g gorn="0.2"  id="copper1">
        <g gorn="0.2.0"  id="copper0">
            <circle stroke-width="1.10268" stroke="#F7BD13" gorn="0.2.0.0"  r="1.96866" fill="none" id="connector134pad" connectorname="D13" cx="69.6897" cy="3.6"/>
            <circle stroke-width="1.10268" stroke="#F7BD13" gorn="0.2.0.1"  r="1.96866" fill="none" id="connector118pad" connectorname="A4" cx="76.8895" cy="61.2"/>
            <circle stroke-width="1.10268" stroke="#F7BD13" gorn="0.2.0.2"  r="1.96866" fill="none" id="connector110pad" connectorname="RESET" cx="19.2897" cy="61.2"/>
            <circle stroke-width="1.10268" stroke="#F7BD13" gorn="0.2.0.3"  r="1.96866" fill="none" id="connector126pad" connectorname="SDA" cx="127.29" cy="3.6"/>
            <circle stroke-width="2.14441" stroke="#F7BD13" gorn="0.2.0.4"  r="2.3478" fill="none" id="connector190pad" connectorname="GND" cx="8.50392" cy="42.6047"/>
            <rect stroke-width="2.14441" y="40.2569" stroke="#F7BD13" width="4.69559" height="4.69559"  fill="none" x="6.15614"/>
            <circle stroke-width="1.10268" stroke="#F7BD13" gorn="0.2.0.6"  r="1.96866" fill="none" id="connector114pad" connectorname="A0" cx="48.0897" cy="61.2"/>
            <circle stroke-width="1.10268" stroke="#F7BD13" gorn="0.2.0.7"  r="1.96866" fill="none" id="connector122pad" connectorname="MISO" cx="105.69" cy="61.2"/>
            <circle stroke-width="1.10268" stroke="#F7BD13" gorn="0.2.0.8"  r="1.96866" fill="none" id="connector130pad" connectorname="D9" cx="98.4895" cy="3.6"/>
            <circle stroke-width="1.85669" stroke="#F7BD13" gorn="0.2.0.9"  r="4.47165" fill="none" id="connector138pad" connectorname="P$1" cx="8.48974" cy="7.2"/>
            <circle stroke-width="1.10268" stroke="#F7BD13" gorn="0.2.0.10"  r="1.96866" fill="none" id="connector112pad" connectorname="AREF" cx="33.6897" cy="61.2"/>
            <circle stroke-width="1.10268" stroke="#F7BD13" gorn="0.2.0.11"  r="1.96866" fill="none" id="connector116pad" connectorname="A2" cx="62.4897" cy="61.2"/>
            <circle stroke-width="1.10268" stroke="#F7BD13" gorn="0.2.0.12"  r="1.96866" fill="none" id="connector120pad" connectorname="SCK" cx="91.2895" cy="61.2"/>
            <circle stroke-width="1.10268" stroke="#F7BD13" gorn="0.2.0.13"  r="1.96866" fill="none" id="connector124pad" connectorname="TXD" cx="120.09" cy="61.2"/>
            <circle stroke-width="1.10268" stroke="#F7BD13" gorn="0.2.0.14"  r="1.96866" fill="none" id="connector128pad" connectorname="D5" cx="112.89" cy="3.6"/>
            <circle stroke-width="1.10268" stroke="#F7BD13" gorn="0.2.0.15"  r="1.96866" fill="none" id="connector132pad" connectorname="D11" cx="84.0895" cy="3.6"/>
            <circle stroke-width="1.10268" stroke="#F7BD13" gorn="0.2.0.16"  r="1.96866" fill="none" id="connector136pad" connectorname="EN" cx="55.2897" cy="3.6"/>
            <circle stroke-width="0.72" stroke="#F7BD13" gorn="0.2.0.17"  r="1.49386" fill="none" id="connector188pad" connectorname="GND" cx="16.4409" cy="41.7543"/>
            <path stroke-width="0" stroke="none"  fill="#F7BD13" d="m14.9471,40.2605,2.98772,0,0,4.48158,-2.98772,0,0,-4.48158M14.9471,41.7543a1.49386,1.49386,0,1,0,2.98772,0,1.49386,1.49386,0,1,0,-2.98772,0zz"/>
            <circle stroke-width="1.10268" stroke="#F7BD13" gorn="0.2.0.19"  r="1.96866" fill="none" id="connector111pad" connectorname="3.3V" cx="26.4897" cy="61.2"/>
            <circle stroke-width="1.10268" stroke="#F7BD13" gorn="0.2.0.20"  r="1.96866" fill="none" id="connector113pad" connectorname="GND" cx="40.8897" cy="61.2"/>
            <circle stroke-width="1.10268" stroke="#F7BD13" gorn="0.2.0.21"  r="1.96866" fill="none" id="connector115pad" connectorname="A1" cx="55.2897" cy="61.2"/>
            <circle stroke-width="1.10268" stroke="#F7BD13" gorn="0.2.0.22"  r="1.96866" fill="none" id="connector117pad" connectorname="A3" cx="69.6897" cy="61.2"/>
            <circle stroke-width="1.10268" stroke="#F7BD13" gorn="0.2.0.23"  r="1.96866" fill="none" id="connector119pad" connectorname="A5" cx="84.0895" cy="61.2"/>
            <circle stroke-width="1.10268" stroke="#F7BD13" gorn="0.2.0.24"  r="1.96866" fill="none" id="connector121pad" connectorname="MOSI" cx="98.4895" cy="61.2"/>
            <circle stroke-width="1.10268" stroke="#F7BD13" gorn="0.2.0.25"  r="1.96866" fill="none" id="connector123pad" connectorname="RXD" cx="112.89" cy="61.2"/>
            <circle stroke-width="1.10268" stroke="#F7BD13" gorn="0.2.0.26"  r="1.96866" fill="none" id="connector125pad" connectorname="D2" cx="127.29" cy="61.2"/>
            <circle stroke-width="1.10268" stroke="#F7BD13" gorn="0.2.0.27"  r="1.96866" fill="none" id="connector127pad" connectorname="SCL" cx="120.09" cy="3.6"/>
            <circle stroke-width="1.10268" stroke="#F7BD13" gorn="0.2.0.28"  r="1.96866" fill="none" id="connector129pad" connectorname="D6" cx="105.69" cy="3.6"/>
            <circle stroke-width="1.10268" stroke="#F7BD13" gorn="0.2.0.29"  r="1.96866" fill="none" id="connector131pad" connectorname="D10" cx="91.2895" cy="3.6"/>
            <circle stroke-width="1.10268" stroke="#F7BD13" gorn="0.2.0.30"  r="1.96866" fill="none" id="connector133pad" connectorname="D12" cx="76.8895" cy="3.6"/>
            <circle stroke-width="1.10268" stroke="#F7BD13" gorn="0.2.0.31"  r="1.96866" fill="none" id="connector135pad" connectorname="VBUS" cx="62.4897" cy="3.6"/>
            <circle stroke-width="1.10268" stroke="#F7BD13" gorn="0.2.0.32"  r="1.96866" fill="none" id="connector137pad" connectorname="VBAT" cx="48.0897" cy="3.6"/>
            <circle stroke-width="1.85669" stroke="#F7BD13" gorn="0.2.0.33"  r="4.47165" fill="none" id="connector139pad" connectorname="P$2" cx="8.48974" cy="57.6"/>
            <circle stroke-width="0.72" stroke="#F7BD13" gorn="0.2.0.34"  r="1.49386" fill="none" id="connector187pad" connectorname="GND" cx="16.4409" cy="23.0457"/>
            <path stroke-width="0" stroke="none"  fill="#F7BD13" d="m14.9471,20.058,2.98772,0,0,4.48158,-2.98772,0,0,-4.48158M14.9471,23.0457a1.49386,1.49386,0,1,0,2.98772,0,1.49386,1.49386,0,1,0,-2.98772,0zz"/>
            <circle stroke-width="2.14441" stroke="#F7BD13" gorn="0.2.0.36"  r="2.3478" fill="none" id="connector189pad" connectorname="GND" cx="8.50392" cy="22.1953"/>
            <rect stroke-width="2.14441" y="19.8474" stroke="#F7BD13" width="4.69559" height="4.69559"  fill="none" x="6.15614"/>
        </g>
    </g>
</svg>
